# xmcd
#
# Track frame offsets: 
#        150
#        10386
#        21895
#        34074
#        50016
#        63407
#        80701
#        89173
#        98886
#        110959
#
# Disc length: 1646 seconds
#
# Revision: 0
# Processed by: cddbd v1.5.2PL0 Copyright (c) Steve Scherf et al.
# Submitted via: ExactAudioCopy v0.99pb5
#
DISCID=8c066c0a
DTITLE=Si Cranstoun - Smokehouse Sessions
DYEAR=2013
DGENRE=R&B
TTITLE0=Mary Lou
TTITLE1=True Lovers
TTITLE2=Rosie Lees
TTITLE3=Around Midnight
TTITLE4=Ruby Baby
TTITLE5=The Throwback
TTITLE6=Them There Eyes
TTITLE7=Sea Cruise
TTITLE8=Little By Little
TTITLE9=50s Pin Up
EXTD=
EXTT0=
EXTT1=
EXTT2=
EXTT3=
EXTT4=
EXTT5=
EXTT6=
EXTT7=
EXTT8=
EXTT9=
PLAYORDER=
